<?xml version="1.0" standalone="no"?>
<!DOCTYPE svg PUBLIC "-//W3C//DTD SVG 20010904//EN"
 "http://www.w3.org/TR/2001/REC-SVG-20010904/DTD/svg10.dtd">
<svg version="1.0" xmlns="http://www.w3.org/2000/svg"
 width="512.000000pt" height="512.000000pt" viewBox="0 0 512.000000 512.000000"
 preserveAspectRatio="xMidYMid meet">
<metadata>
Created by potrace 1.11, written by Peter Selinger 2001-2013
</metadata>
<g transform="translate(0.000000,512.000000) scale(0.100000,-0.100000)"
fill="#000000" stroke="none">
<path d="M817 3825 c3 -9 2 -15 -3 -14 -25 4 -44 -3 -44 -16 0 -10 -10 -15
-31 -15 -18 0 -28 -4 -24 -10 4 -6 12 -7 18 -4 7 4 9 4 5 0 -3 -4 -9 -7 -13
-6 -4 1 -13 -7 -22 -17 -9 -11 -12 -12 -8 -3 4 9 0 7 -9 -4 -8 -10 -20 -15
-28 -11 -7 3 -4 -1 6 -9 17 -14 18 -16 3 -16 -12 0 -17 -8 -17 -30 0 -19 -5
-29 -12 -27 -10 1 -13 -221 -15 -1081 -2 -950 -1 -1083 12 -1088 8 -4 15 -17
15 -30 0 -16 6 -24 17 -24 15 0 14 -2 -3 -14 -19 -14 -19 -14 1 -13 13 1 19
-3 17 -12 -3 -12 -1 -12 14 0 10 8 15 9 11 3 -4 -7 2 -14 13 -17 11 -3 19 -11
18 -19 -2 -8 4 -12 15 -10 10 2 17 -3 17 -13 0 -9 9 -15 24 -15 13 0 26 -7 30
-15 5 -13 158 -15 1294 -15 1134 0 1291 2 1302 15 14 17 45 21 35 5 -4 -6 -10
-8 -15 -5 -5 3 -11 1 -15 -5 -9 -15 16 -12 35 5 9 8 26 16 38 18 12 2 25 7 29
12 5 4 3 5 -4 1 -6 -3 -14 -2 -18 4 -3 5 1 10 10 10 8 0 19 8 22 17 6 15 7 15
14 -3 7 -17 8 -17 8 4 1 13 5 20 11 17 6 -4 9 -1 8 6 -2 7 2 13 9 14 6 0 15 4
20 9 4 5 3 6 -4 2 -6 -3 -14 -2 -18 4 -3 5 1 10 9 10 10 0 16 9 16 24 0 13 7
26 15 29 12 5 14 63 15 384 0 208 2 385 3 393 3 17 22 26 22 10 0 -5 4 -9 8
-7 12 3 37 -46 29 -58 -3 -5 3 -3 13 5 11 9 16 10 11 3 -4 -8 -1 -13 8 -13 9
0 16 -5 16 -11 0 -5 -4 -7 -10 -4 -6 3 -10 1 -10 -4 0 -6 5 -11 10 -11 6 0 10
-7 10 -15 0 -10 7 -15 18 -13 11 2 16 -3 14 -14 -2 -12 2 -16 13 -12 10 4 15
0 15 -10 0 -9 7 -16 15 -16 8 0 15 -7 15 -15 0 -8 7 -15 15 -15 8 0 15 -7 15
-15 0 -8 9 -15 20 -15 13 0 18 -5 14 -15 -4 -9 0 -15 10 -15 9 0 16 -7 16 -16
0 -8 5 -12 10 -9 6 3 10 -3 10 -14 0 -12 7 -21 15 -21 8 0 15 -4 15 -10 0 -5
7 -10 15 -10 8 0 15 -7 15 -15 0 -8 7 -15 15 -15 8 0 15 -7 15 -15 0 -8 7 -15
15 -15 8 0 15 -7 15 -15 0 -8 7 -15 15 -15 8 0 15 -7 15 -15 0 -8 5 -15 10
-15 6 0 10 -7 10 -15 0 -8 7 -15 15 -15 8 0 15 -4 15 -10 0 -5 7 -10 15 -10
13 0 20 -19 16 -44 -1 -5 4 -4 12 3 12 9 16 7 20 -10 3 -12 10 -18 16 -14 6 3
11 -1 11 -9 0 -9 7 -16 15 -16 8 0 15 -7 15 -15 0 -8 7 -15 15 -15 8 0 15 -7
15 -15 0 -8 4 -15 10 -15 5 0 9 -3 9 -7 -4 -23 3 -32 18 -26 11 4 14 3 9 -5
-4 -7 -2 -12 4 -12 6 0 8 -5 4 -12 -5 -8 0 -7 11 2 17 14 18 13 12 -2 -5 -13
-1 -18 13 -18 25 0 26 -17 3 -23 -14 -4 -12 -5 4 -6 13 0 22 -6 20 -13 -1 -7
5 -12 13 -13 8 0 14 -8 14 -18 -1 -9 2 -15 6 -12 5 3 16 2 25 -1 12 -5 13 -9
5 -14 -8 -5 -7 -9 4 -13 14 -6 16 101 13 1158 -1 768 -5 1165 -12 1165 -5 0
-10 -6 -10 -12 0 -7 -7 -13 -15 -13 -8 0 -16 -6 -16 -12 -1 -7 -3 -16 -4 -20
-1 -5 -2 -11 -1 -15 0 -4 -6 -5 -14 -2 -8 4 -15 1 -15 -6 0 -7 -6 -10 -13 -7
-8 3 -14 -3 -14 -15 -2 -22 -28 -50 -56 -61 -10 -4 -15 -11 -12 -17 3 -5 1
-11 -4 -11 -6 -1 -15 -2 -20 -3 -5 0 -13 -5 -18 -10 -4 -5 -3 -6 4 -2 6 3 14
2 18 -4 3 -5 -1 -10 -9 -10 -9 0 -16 -7 -16 -15 0 -8 -9 -15 -19 -15 -11 0
-23 -5 -27 -12 -4 -7 -3 -8 4 -4 7 4 12 2 12 -3 0 -6 -7 -11 -15 -11 -8 0 -15
-7 -15 -15 0 -8 -7 -15 -15 -15 -8 0 -15 -7 -15 -16 0 -14 -3 -14 -16 -4 -8 8
-14 9 -13 4 4 -21 -2 -34 -16 -34 -8 0 -15 -7 -15 -15 0 -8 -4 -15 -10 -15 -5
0 -10 -7 -10 -15 0 -8 -7 -15 -15 -15 -8 0 -15 -7 -15 -15 0 -8 -7 -15 -16
-15 -10 0 -14 -6 -10 -15 4 -11 -1 -15 -19 -15 -18 0 -23 -4 -19 -15 4 -9 0
-15 -10 -15 -9 0 -16 -7 -16 -15 0 -9 -6 -12 -17 -8 -12 5 -15 2 -10 -10 4
-11 1 -17 -8 -17 -8 0 -15 -7 -15 -15 0 -8 -7 -15 -16 -15 -10 0 -14 -6 -10
-15 5 -14 0 -17 -21 -14 -4 0 -11 -9 -15 -21 -4 -12 -12 -19 -17 -16 -5 3 -11
-4 -14 -15 -3 -12 -10 -18 -16 -14 -6 3 -11 1 -11 -4 0 -6 -8 -11 -17 -12 -16
0 -15 -1 1 -8 19 -7 19 -8 -2 -13 -16 -5 -20 -11 -16 -25 6 -16 5 -16 -10 2
l-17 20 3 -20 c2 -12 -2 -19 -9 -17 -7 1 -13 -7 -13 -19 0 -11 -5 -17 -10 -14
-6 3 -10 2 -10 -4 0 -5 5 -12 10 -14 6 -3 5 -4 -2 -3 -22 5 -48 -14 -48 -34 0
-20 -14 -27 -24 -12 -3 5 -6 186 -6 402 -1 227 -5 388 -10 380 -5 -8 -12 -11
-16 -7 -4 3 -1 14 7 24 8 9 9 14 2 10 -7 -5 -13 1 -15 15 -2 13 -9 22 -17 20
-8 -2 -11 3 -8 12 3 8 -1 17 -9 20 -8 3 -14 12 -14 20 0 8 -4 18 -10 21 -6 3
-7 -1 -4 -12 3 -10 -2 -6 -11 10 -8 15 -18 27 -21 27 -3 0 -2 -4 1 -10 3 -5 1
-10 -4 -10 -6 0 -11 7 -11 15 0 13 -31 21 -62 16 -4 0 -5 6 -2 14 5 13 -153
15 -1295 15 -1236 0 -1300 -1 -1295 -17 5 -17 5 -17 -9 0 -18 21 -28 22 -20 2z
m-172 -205 c3 -5 1 -10 -4 -10 -6 0 -11 5 -11 10 0 6 2 10 4 10 3 0 8 -4 11
-10z"/>
<path d="M710 1349 c0 -5 5 -7 10 -4 6 3 10 8 10 11 0 2 -4 4 -10 4 -5 0 -10
-5 -10 -11z"/>
</g>
</svg>
